# Blender 5.1.1
# www.blender.org
mtllib ncrFlagMesh2.mtl
o NV_LegionFlag:0
v -17.905912 4.513012 19.860401
v -17.658222 6.941880 19.343004
v -15.655127 4.193974 19.348684
v -15.490137 6.508924 18.670454
v -13.463136 4.148501 19.164009
v -13.207832 6.466562 18.513939
v -11.265594 3.861343 18.813652
v -11.228683 6.527332 18.822041
v -8.966686 3.927600 18.438854
v -8.878428 6.589000 18.567356
v -6.632382 3.863985 18.051182
v -6.535267 6.593294 18.180561
v -4.301985 3.950382 17.688910
v -4.210913 6.688586 17.809105
v -1.992388 4.183969 17.330238
v -1.901291 6.927893 17.453747
v 0.293933 4.480676 16.971596
v 0.398026 7.227907 17.095795
v -17.491808 9.307722 18.782179
v -15.181177 9.199006 18.308435
v -12.859301 9.154837 18.260252
v -11.007862 9.109590 18.756008
v -8.688160 9.336885 18.645937
v -6.368812 9.365257 18.289776
v -4.061273 9.458735 17.927433
v -1.754014 9.702191 17.569967
v 0.546804 10.019827 17.213303
v -17.331432 11.771072 19.410622
v -15.157911 11.919167 18.784613
v -12.902056 11.795117 18.802622
v -10.785440 11.819887 19.027161
v -8.490409 12.132005 18.727320
v -6.203756 12.160818 18.366974
v -3.908082 12.243711 18.028906
v -1.601436 12.496124 17.687241
v 0.697282 12.846032 17.337509
v -17.272133 14.301376 20.066589
v -15.142544 14.320893 19.572771
v -12.939847 14.305721 19.499100
v -10.632321 14.584568 19.205706
v -8.335362 14.948280 18.862333
v -6.062256 14.967244 18.482323
v -3.777791 15.032596 18.134659
v -1.477941 15.302711 17.802145
v 0.816447 15.701753 17.466518
v -17.297974 17.073624 20.463854
v -15.109312 16.977591 20.086948
v -12.826928 17.063347 19.723221
v -10.516562 17.368025 19.352232
v -8.214904 17.792515 18.990967
v -5.964136 17.781223 18.629704
v -3.700894 17.820385 18.271729
v -1.404125 18.115261 17.932236
v 0.892183 18.582005 17.605303
v -17.241182 19.922630 20.648445
v -15.057623 19.763447 20.266445
v -12.765333 19.818502 19.856283
v -10.446470 20.159374 19.487617
v -8.153524 20.669477 19.144768
v -5.970696 20.603283 18.792318
v -3.705599 20.597054 18.424728
v -1.375583 20.925467 18.073704
v 0.928394 21.489588 17.751543
v -17.183144 22.795193 20.793276
v -15.067213 22.540638 20.419397
v -12.741133 22.545126 20.016802
v -10.431729 22.958437 19.638590
v -8.148082 23.587559 19.307423
v -6.023600 23.415802 18.964319
v -3.698133 23.317127 18.565283
v -1.380517 23.736467 18.221348
v 0.907088 24.436096 17.909140
v 0.761000 27.422710 18.091434
v -1.496367 26.528511 18.395224
v -3.770010 26.016582 18.737797
v -6.006817 25.997921 19.054110
v -8.192754 26.563753 19.515623
v -10.487156 25.754246 19.806995
v -12.774247 25.268036 20.176550
v -15.005569 25.150011 20.546301
v -17.146509 25.704796 20.939812
v -17.905912 4.513012 19.860401
v -15.655127 4.193974 19.348684
v -17.658222 6.941880 19.343004
v -15.490137 6.508924 18.670454
v -17.491808 9.307722 18.782179
v -15.181177 9.199006 18.308435
v -17.331432 11.771072 19.410622
v -15.157911 11.919167 18.784613
v -17.272133 14.301376 20.066589
v -15.142544 14.320893 19.572771
v -17.297974 17.073624 20.463854
v -15.109312 16.977591 20.086948
v -17.241182 19.922630 20.648445
v -15.057623 19.763447 20.266445
v -17.183144 22.795193 20.793276
v -15.067213 22.540638 20.419397
v -17.146509 25.704796 20.939812
v -15.005569 25.150011 20.546301
v -13.463136 4.148501 19.164009
v -13.207832 6.466562 18.513939
v -12.859301 9.154837 18.260252
v -12.902056 11.795117 18.802622
v -12.939847 14.305721 19.499100
v -12.826928 17.063347 19.723221
v -12.765333 19.818502 19.856283
v -12.741133 22.545126 20.016802
v -12.774247 25.268036 20.176550
v -11.265594 3.861343 18.813652
v -11.228683 6.527332 18.822041
v -11.007862 9.109590 18.756008
v -10.785440 11.819887 19.027161
v -10.632321 14.584568 19.205706
v -10.516562 17.368025 19.352232
v -10.446470 20.159374 19.487617
v -10.431729 22.958437 19.638590
v -10.487156 25.754246 19.806995
v -8.966686 3.927600 18.438854
v -8.878428 6.589000 18.567356
v -8.688160 9.336885 18.645937
v -8.490409 12.132005 18.727320
v -8.335362 14.948280 18.862333
v -8.214904 17.792515 18.990967
v -8.153524 20.669477 19.144768
v -8.148082 23.587559 19.307423
v -8.192754 26.563753 19.515623
v -6.632382 3.863985 18.051182
v -6.535267 6.593294 18.180561
v -6.368812 9.365257 18.289776
v -6.203756 12.160818 18.366974
v -6.062256 14.967244 18.482323
v -5.964136 17.781223 18.629704
v -5.970696 20.603283 18.792318
v -6.023600 23.415802 18.964319
v -6.006817 25.997921 19.054110
v -4.301985 3.950382 17.688910
v -4.210913 6.688586 17.809105
v -4.061273 9.458735 17.927433
v -3.908082 12.243711 18.028906
v -3.777791 15.032596 18.134659
v -3.700894 17.820385 18.271729
v -3.705599 20.597054 18.424728
v -3.698133 23.317127 18.565283
v -3.770010 26.016582 18.737797
v -1.992388 4.183969 17.330238
v -1.901291 6.927893 17.453747
v -1.754014 9.702191 17.569967
v -1.601436 12.496124 17.687241
v -1.477941 15.302711 17.802145
v -1.404125 18.115261 17.932236
v -1.375583 20.925467 18.073704
v -1.380517 23.736467 18.221348
v -1.496367 26.528511 18.395224
v 0.293933 4.480676 16.971596
v 0.398026 7.227907 17.095795
v 0.546804 10.019827 17.213303
v 0.697282 12.846032 17.337509
v 0.816447 15.701753 17.466518
v 0.892183 18.582005 17.605303
v 0.928394 21.489588 17.751543
v 0.907088 24.436096 17.909140
v 0.761000 27.422710 18.091434
vn -0.3016 -0.3745 -0.8768
vn -0.4095 -0.4086 -0.8157
vn -0.1979 -0.4738 -0.8581
vn -0.1994 -0.4060 -0.8918
vn -0.0968 -0.4983 -0.8616
vn 0.1541 -0.3172 -0.9357
vn -0.0425 -0.1743 -0.9838
vn 0.1867 -0.0763 -0.9794
vn -0.1370 0.0280 -0.9902
vn -0.0949 0.0229 -0.9952
vn -0.1562 0.0536 -0.9863
vn -0.1572 0.0458 -0.9865
vn -0.1536 0.0479 -0.9870
vn -0.1545 0.0474 -0.9868
vn -0.1566 0.0473 -0.9865
vn -0.1558 0.0486 -0.9866
vn -0.1596 0.0489 -0.9860
vn -0.1583 0.0491 -0.9862
vn -0.2864 0.0550 -0.9565
vn -0.0857 0.0348 -0.9957
vn 0.3222 0.0500 -0.9454
vn 0.2719 0.0548 -0.9607
vn -0.0675 0.0460 -0.9967
vn -0.1487 0.0350 -0.9883
vn -0.1504 0.0412 -0.9878
vn -0.1544 0.0467 -0.9869
vn -0.1569 0.0495 -0.9864
vn -0.3440 0.3797 -0.8588
vn -0.1015 0.3964 -0.9124
vn 0.2662 0.3554 -0.8960
vn 0.0721 0.1493 -0.9862
vn -0.1349 0.0481 -0.9897
vn -0.1458 0.0377 -0.9886
vn -0.1394 0.0401 -0.9894
vn -0.1471 0.0455 -0.9881
vn -0.1514 0.0489 -0.9873
vn -0.3000 0.3406 -0.8910
vn -0.0680 0.4025 -0.9129
vn 0.0120 0.2640 -0.9645
vn -0.1330 0.0819 -0.9877
vn -0.1597 0.0559 -0.9856
vn -0.1525 0.0514 -0.9870
vn -0.1404 0.0476 -0.9889
vn -0.1420 0.0475 -0.9887
vn -0.1436 0.0500 -0.9884
vn -0.1909 0.1769 -0.9655
vn -0.1332 0.1763 -0.9753
vn -0.1602 0.0831 -0.9836
vn -0.1658 0.0568 -0.9845
vn -0.1609 0.0568 -0.9853
vn -0.1519 0.0608 -0.9865
vn -0.1475 0.0551 -0.9875
vn -0.1431 0.0509 -0.9884
vn -0.1402 0.0515 -0.9888
vn -0.1736 0.0679 -0.9825
vn -0.1790 0.0646 -0.9817
vn -0.1786 0.0576 -0.9822
vn -0.1652 0.0574 -0.9846
vn -0.1552 0.0596 -0.9861
vn -0.1544 0.0611 -0.9861
vn -0.1548 0.0549 -0.9864
vn -0.1449 0.0514 -0.9881
vn -0.1396 0.0518 -0.9889
vn -0.1739 0.0535 -0.9833
vn -0.1777 0.0557 -0.9825
vn -0.1772 0.0612 -0.9823
vn -0.1677 0.0589 -0.9841
vn -0.1489 0.0691 -0.9864
vn -0.1669 0.0487 -0.9848
vn -0.1557 0.0525 -0.9864
vn -0.1466 0.0562 -0.9876
vn -0.1417 0.0548 -0.9884
vn -0.1456 0.0540 -0.9879
vn -0.1507 0.0569 -0.9869
vn -0.1386 0.0644 -0.9883
vn -0.1918 0.0315 -0.9809
vn -0.1653 0.0649 -0.9841
vn -0.1595 0.0676 -0.9849
vn -0.1756 0.0601 -0.9826
vn -0.1739 0.0543 -0.9833
vn -0.1735 0.0522 -0.9834
vn 0.3016 0.3745 0.8768
vn 0.1979 0.4738 0.8581
vn 0.4095 0.4085 0.8157
vn 0.1994 0.4060 0.8918
vn 0.2864 -0.0550 0.9565
vn 0.0858 -0.0348 0.9957
vn 0.3440 -0.3797 0.8587
vn 0.1015 -0.3964 0.9124
vn 0.3000 -0.3406 0.8911
vn 0.0680 -0.4025 0.9129
vn 0.1909 -0.1769 0.9655
vn 0.1332 -0.1763 0.9753
vn 0.1736 -0.0678 0.9825
vn 0.1790 -0.0646 0.9817
vn 0.1739 -0.0536 0.9833
vn 0.1777 -0.0557 0.9825
vn 0.1735 -0.0522 0.9834
vn 0.1739 -0.0543 0.9833
vn 0.0968 0.4982 0.8616
vn -0.1541 0.3172 0.9357
vn -0.3222 -0.0491 0.9454
vn -0.2662 -0.3553 0.8960
vn -0.0121 -0.2640 0.9644
vn 0.1602 -0.0831 0.9836
vn 0.1787 -0.0576 0.9822
vn 0.1772 -0.0612 0.9823
vn 0.1756 -0.0601 0.9826
vn 0.0425 0.1744 0.9838
vn -0.1868 0.0763 0.9794
vn -0.2720 -0.0522 0.9609
vn -0.0721 -0.1493 0.9862
vn 0.1330 -0.0819 0.9877
vn 0.1658 -0.0568 0.9845
vn 0.1652 -0.0574 0.9846
vn 0.1677 -0.0589 0.9841
vn 0.1595 -0.0676 0.9849
vn 0.1370 -0.0280 0.9902
vn 0.0949 -0.0229 0.9952
vn 0.0675 -0.0460 0.9967
vn 0.1349 -0.0481 0.9897
vn 0.1597 -0.0559 0.9856
vn 0.1609 -0.0568 0.9853
vn 0.1552 -0.0596 0.9861
vn 0.1489 -0.0691 0.9864
vn 0.1653 -0.0648 0.9841
vn 0.1562 -0.0536 0.9863
vn 0.1572 -0.0458 0.9865
vn 0.1487 -0.0350 0.9883
vn 0.1458 -0.0378 0.9886
vn 0.1524 -0.0514 0.9870
vn 0.1519 -0.0608 0.9865
vn 0.1544 -0.0611 0.9861
vn 0.1669 -0.0487 0.9848
vn 0.1918 -0.0315 0.9809
vn 0.1536 -0.0479 0.9870
vn 0.1545 -0.0474 0.9868
vn 0.1504 -0.0412 0.9878
vn 0.1394 -0.0401 0.9894
vn 0.1404 -0.0476 0.9889
vn 0.1476 -0.0551 0.9875
vn 0.1548 -0.0549 0.9864
vn 0.1557 -0.0525 0.9864
vn 0.1385 -0.0644 0.9883
vn 0.1566 -0.0473 0.9865
vn 0.1558 -0.0486 0.9866
vn 0.1544 -0.0467 0.9869
vn 0.1471 -0.0455 0.9881
vn 0.1420 -0.0475 0.9887
vn 0.1431 -0.0509 0.9884
vn 0.1448 -0.0514 0.9881
vn 0.1466 -0.0562 0.9876
vn 0.1507 -0.0569 0.9869
vn 0.1596 -0.0489 0.9860
vn 0.1583 -0.0491 0.9862
vn 0.1569 -0.0495 0.9864
vn 0.1514 -0.0489 0.9873
vn 0.1436 -0.0500 0.9884
vn 0.1402 -0.0515 0.9888
vn 0.1396 -0.0518 0.9889
vn 0.1417 -0.0548 0.9884
vn 0.1456 -0.0540 0.9879
vt 0.988751 0.190273
vt 0.988751 0.294964
vt 0.869439 0.190273
vt 0.869439 0.294964
vt 0.750127 0.190273
vt 0.750127 0.294964
vt 0.630815 0.190273
vt 0.630815 0.294964
vt 0.511503 0.190273
vt 0.511503 0.294964
vt 0.392191 0.190273
vt 0.392191 0.294964
vt 0.272879 0.190273
vt 0.272879 0.294964
vt 0.153567 0.190273
vt 0.153567 0.294964
vt 0.034255 0.190273
vt 0.034255 0.294964
vt 0.988751 0.352018
vt 0.869439 0.352018
vt 0.750127 0.352018
vt 0.630815 0.352018
vt 0.511503 0.352018
vt 0.392191 0.352018
vt 0.272879 0.352018
vt 0.153567 0.352018
vt 0.034255 0.352018
vt 0.985622 0.431928
vt 0.866309 0.431928
vt 0.746997 0.431928
vt 0.627685 0.431928
vt 0.508373 0.431928
vt 0.389061 0.431928
vt 0.269749 0.431928
vt 0.150437 0.431928
vt 0.031125 0.431928
vt 0.985622 0.547634
vt 0.866309 0.547634
vt 0.746997 0.547634
vt 0.627685 0.547634
vt 0.508373 0.547634
vt 0.389061 0.547634
vt 0.269749 0.547634
vt 0.150437 0.547634
vt 0.031125 0.547634
vt 0.985622 0.663340
vt 0.866309 0.663340
vt 0.746997 0.663340
vt 0.627685 0.663340
vt 0.508373 0.663340
vt 0.389061 0.663340
vt 0.269749 0.663340
vt 0.150437 0.663340
vt 0.031125 0.663340
vt 0.985622 0.779046
vt 0.866309 0.779046
vt 0.746997 0.779046
vt 0.627685 0.779046
vt 0.508373 0.779046
vt 0.389061 0.779046
vt 0.269749 0.779046
vt 0.150437 0.779046
vt 0.031125 0.779046
vt 0.985622 0.885937
vt 0.866309 0.885937
vt 0.746997 0.885937
vt 0.627685 0.885937
vt 0.508373 0.885937
vt 0.389061 0.885937
vt 0.269749 0.885937
vt 0.150437 0.885937
vt 0.031125 0.885937
vt 0.027996 0.976917
vt 0.147308 0.976917
vt 0.266620 0.976917
vt 0.385932 0.976917
vt 0.505244 0.976917
vt 0.624556 0.976917
vt 0.743868 0.976917
vt 0.863180 0.976917
vt 0.982492 0.976917
s 1
usemtl noname.030
f 1/1/1 2/2/2 3/3/3
f 2/2/2 4/4/4 3/3/3
f 3/3/3 4/4/4 5/5/5
f 4/4/4 6/6/6 5/5/5
f 5/5/5 6/6/6 7/7/7
f 6/6/6 8/8/8 7/7/7
f 7/7/7 8/8/8 9/9/9
f 8/8/8 10/10/10 9/9/9
f 9/9/9 10/10/10 11/11/11
f 10/10/10 12/12/12 11/11/11
f 11/11/11 12/12/12 13/13/13
f 12/12/12 14/14/14 13/13/13
f 13/13/13 14/14/14 15/15/15
f 14/14/14 16/16/16 15/15/15
f 15/15/15 16/16/16 17/17/17
f 16/16/16 18/18/18 17/17/17
f 2/2/2 19/19/19 4/4/4
f 19/19/19 20/20/20 4/4/4
f 4/4/4 20/20/20 6/6/6
f 20/20/20 21/21/21 6/6/6
f 6/6/6 21/21/21 8/8/8
f 21/21/21 22/22/22 8/8/8
f 8/8/8 22/22/22 10/10/10
f 22/22/22 23/23/23 10/10/10
f 10/10/10 23/23/23 12/12/12
f 23/23/23 24/24/24 12/12/12
f 12/12/12 24/24/24 14/14/14
f 24/24/24 25/25/25 14/14/14
f 14/14/14 25/25/25 16/16/16
f 25/25/25 26/26/26 16/16/16
f 16/16/16 26/26/26 18/18/18
f 26/26/26 27/27/27 18/18/18
f 19/19/19 28/28/28 20/20/20
f 28/28/28 29/29/29 20/20/20
f 20/20/20 29/29/29 21/21/21
f 29/29/29 30/30/30 21/21/21
f 21/21/21 30/30/30 22/22/22
f 30/30/30 31/31/31 22/22/22
f 22/22/22 31/31/31 23/23/23
f 31/31/31 32/32/32 23/23/23
f 23/23/23 32/32/32 24/24/24
f 32/32/32 33/33/33 24/24/24
f 24/24/24 33/33/33 25/25/25
f 33/33/33 34/34/34 25/25/25
f 25/25/25 34/34/34 26/26/26
f 34/34/34 35/35/35 26/26/26
f 26/26/26 35/35/35 27/27/27
f 35/35/35 36/36/36 27/27/27
f 28/28/28 37/37/37 29/29/29
f 37/37/37 38/38/38 29/29/29
f 29/29/29 38/38/38 30/30/30
f 38/38/38 39/39/39 30/30/30
f 30/30/30 39/39/39 31/31/31
f 39/39/39 40/40/40 31/31/31
f 31/31/31 40/40/40 32/32/32
f 40/40/40 41/41/41 32/32/32
f 32/32/32 41/41/41 33/33/33
f 41/41/41 42/42/42 33/33/33
f 33/33/33 42/42/42 34/34/34
f 42/42/42 43/43/43 34/34/34
f 34/34/34 43/43/43 35/35/35
f 43/43/43 44/44/44 35/35/35
f 35/35/35 44/44/44 36/36/36
f 44/44/44 45/45/45 36/36/36
f 37/37/37 46/46/46 38/38/38
f 46/46/46 47/47/47 38/38/38
f 38/38/38 47/47/47 39/39/39
f 47/47/47 48/48/48 39/39/39
f 39/39/39 48/48/48 40/40/40
f 48/48/48 49/49/49 40/40/40
f 40/40/40 49/49/49 41/41/41
f 49/49/49 50/50/50 41/41/41
f 41/41/41 50/50/50 42/42/42
f 50/50/50 51/51/51 42/42/42
f 42/42/42 51/51/51 43/43/43
f 51/51/51 52/52/52 43/43/43
f 43/43/43 52/52/52 44/44/44
f 52/52/52 53/53/53 44/44/44
f 44/44/44 53/53/53 45/45/45
f 53/53/53 54/54/54 45/45/45
f 46/46/46 55/55/55 47/47/47
f 55/55/55 56/56/56 47/47/47
f 47/47/47 56/56/56 48/48/48
f 56/56/56 57/57/57 48/48/48
f 48/48/48 57/57/57 49/49/49
f 57/57/57 58/58/58 49/49/49
f 49/49/49 58/58/58 50/50/50
f 58/58/58 59/59/59 50/50/50
f 50/50/50 59/59/59 51/51/51
f 59/59/59 60/60/60 51/51/51
f 51/51/51 60/60/60 52/52/52
f 60/60/60 61/61/61 52/52/52
f 52/52/52 61/61/61 53/53/53
f 61/61/61 62/62/62 53/53/53
f 53/53/53 62/62/62 54/54/54
f 62/62/62 63/63/63 54/54/54
f 55/55/55 64/64/64 56/56/56
f 64/64/64 65/65/65 56/56/56
f 56/56/56 65/65/65 57/57/57
f 65/65/65 66/66/66 57/57/57
f 57/57/57 66/66/66 58/58/58
f 66/66/66 67/67/67 58/58/58
f 58/58/58 67/67/67 59/59/59
f 67/67/67 68/68/68 59/59/59
f 59/59/59 68/68/68 60/60/60
f 68/68/68 69/69/69 60/60/60
f 60/60/60 69/69/69 61/61/61
f 69/69/69 70/70/70 61/61/61
f 61/61/61 70/70/70 62/62/62
f 70/70/70 71/71/71 62/62/62
f 62/62/62 71/71/71 63/63/63
f 71/71/71 72/72/72 63/63/63
f 73/73/73 72/72/72 74/74/74
f 72/72/72 71/71/71 74/74/74
f 74/74/74 71/71/71 75/75/75
f 71/71/71 70/70/70 75/75/75
f 75/75/75 70/70/70 76/76/76
f 70/70/70 69/69/69 76/76/76
f 76/76/76 69/69/69 77/77/77
f 69/69/69 68/68/68 77/77/77
f 77/77/77 68/68/68 78/78/78
f 68/68/68 67/67/67 78/78/78
f 78/78/78 67/67/67 79/79/79
f 67/67/67 66/66/66 79/79/79
f 79/79/79 66/66/66 80/80/80
f 66/66/66 65/65/65 80/80/80
f 80/80/80 65/65/65 81/81/81
f 65/65/65 64/64/64 81/81/81
f 82/1/82 83/3/83 84/2/84
f 83/3/83 85/4/85 84/2/84
f 84/2/84 85/4/85 86/19/86
f 85/4/85 87/20/87 86/19/86
f 86/19/86 87/20/87 88/28/88
f 87/20/87 89/29/89 88/28/88
f 88/28/88 89/29/89 90/37/90
f 89/29/89 91/38/91 90/37/90
f 90/37/90 91/38/91 92/46/92
f 91/38/91 93/47/93 92/46/92
f 92/46/92 93/47/93 94/55/94
f 93/47/93 95/56/95 94/55/94
f 94/55/94 95/56/95 96/64/96
f 95/56/95 97/65/97 96/64/96
f 96/64/96 97/65/97 98/81/98
f 97/65/97 99/80/99 98/81/98
f 83/3/83 100/5/100 85/4/85
f 100/5/100 101/6/101 85/4/85
f 85/4/85 101/6/101 87/20/87
f 101/6/101 102/21/102 87/20/87
f 87/20/87 102/21/102 89/29/89
f 102/21/102 103/30/103 89/29/89
f 89/29/89 103/30/103 91/38/91
f 103/30/103 104/39/104 91/38/91
f 91/38/91 104/39/104 93/47/93
f 104/39/104 105/48/105 93/47/93
f 93/47/93 105/48/105 95/56/95
f 105/48/105 106/57/106 95/56/95
f 95/56/95 106/57/106 97/65/97
f 106/57/106 107/66/107 97/65/97
f 97/65/97 107/66/107 99/80/99
f 107/66/107 108/79/108 99/80/99
f 100/5/100 109/7/109 101/6/101
f 109/7/109 110/8/110 101/6/101
f 101/6/101 110/8/110 102/21/102
f 110/8/110 111/22/111 102/21/102
f 102/21/102 111/22/111 103/30/103
f 111/22/111 112/31/112 103/30/103
f 103/30/103 112/31/112 104/39/104
f 112/31/112 113/40/113 104/39/104
f 104/39/104 113/40/113 105/48/105
f 113/40/113 114/49/114 105/48/105
f 105/48/105 114/49/114 106/57/106
f 114/49/114 115/58/115 106/57/106
f 106/57/106 115/58/115 107/66/107
f 115/58/115 116/67/116 107/66/107
f 107/66/107 116/67/116 108/79/108
f 116/67/116 117/78/117 108/79/108
f 109/7/109 118/9/118 110/8/110
f 118/9/118 119/10/119 110/8/110
f 110/8/110 119/10/119 111/22/111
f 119/10/119 120/23/120 111/22/111
f 111/22/111 120/23/120 112/31/112
f 120/23/120 121/32/121 112/31/112
f 112/31/112 121/32/121 113/40/113
f 121/32/121 122/41/122 113/40/113
f 113/40/113 122/41/122 114/49/114
f 122/41/122 123/50/123 114/49/114
f 114/49/114 123/50/123 115/58/115
f 123/50/123 124/59/124 115/58/115
f 115/58/115 124/59/124 116/67/116
f 124/59/124 125/68/125 116/67/116
f 116/67/116 125/68/125 117/78/117
f 125/68/125 126/77/126 117/78/117
f 118/9/118 127/11/127 119/10/119
f 127/11/127 128/12/128 119/10/119
f 119/10/119 128/12/128 120/23/120
f 128/12/128 129/24/129 120/23/120
f 120/23/120 129/24/129 121/32/121
f 129/24/129 130/33/130 121/32/121
f 121/32/121 130/33/130 122/41/122
f 130/33/130 131/42/131 122/41/122
f 122/41/122 131/42/131 123/50/123
f 131/42/131 132/51/132 123/50/123
f 123/50/123 132/51/132 124/59/124
f 132/51/132 133/60/133 124/59/124
f 124/59/124 133/60/133 125/68/125
f 133/60/133 134/69/134 125/68/125
f 125/68/125 134/69/134 126/77/126
f 134/69/134 135/76/135 126/77/126
f 127/11/127 136/13/136 128/12/128
f 136/13/136 137/14/137 128/12/128
f 128/12/128 137/14/137 129/24/129
f 137/14/137 138/25/138 129/24/129
f 129/24/129 138/25/138 130/33/130
f 138/25/138 139/34/139 130/33/130
f 130/33/130 139/34/139 131/42/131
f 139/34/139 140/43/140 131/42/131
f 131/42/131 140/43/140 132/51/132
f 140/43/140 141/52/141 132/51/132
f 132/51/132 141/52/141 133/60/133
f 141/52/141 142/61/142 133/60/133
f 133/60/133 142/61/142 134/69/134
f 142/61/142 143/70/143 134/69/134
f 134/69/134 143/70/143 135/76/135
f 143/70/143 144/75/144 135/76/135
f 136/13/136 145/15/145 137/14/137
f 145/15/145 146/16/146 137/14/137
f 137/14/137 146/16/146 138/25/138
f 146/16/146 147/26/147 138/25/138
f 138/25/138 147/26/147 139/34/139
f 147/26/147 148/35/148 139/34/139
f 139/34/139 148/35/148 140/43/140
f 148/35/148 149/44/149 140/43/140
f 140/43/140 149/44/149 141/52/141
f 149/44/149 150/53/150 141/52/141
f 141/52/141 150/53/150 142/61/142
f 150/53/150 151/62/151 142/61/142
f 142/61/142 151/62/151 143/70/143
f 151/62/151 152/71/152 143/70/143
f 143/70/143 152/71/152 144/75/144
f 152/71/152 153/74/153 144/75/144
f 145/15/145 154/17/154 146/16/146
f 154/17/154 155/18/155 146/16/146
f 146/16/146 155/18/155 147/26/147
f 155/18/155 156/27/156 147/26/147
f 147/26/147 156/27/156 148/35/148
f 156/27/156 157/36/157 148/35/148
f 148/35/148 157/36/157 149/44/149
f 157/36/157 158/45/158 149/44/149
f 149/44/149 158/45/158 150/53/150
f 158/45/158 159/54/159 150/53/150
f 150/53/150 159/54/159 151/62/151
f 159/54/159 160/63/160 151/62/151
f 151/62/151 160/63/160 152/71/152
f 160/63/160 161/72/161 152/71/152
f 152/71/152 161/72/161 153/74/153
f 161/72/161 162/73/162 153/74/153
