# Blender 5.1.1
# www.blender.org
mtllib backgroundMountains.mtl
o Plane.001
v -932.780151 141.290741 1509.221436
v -861.106384 144.371338 1510.801758
v -957.927917 157.385010 1509.242676
v -832.780151 33.569138 1513.723145
v -981.056274 56.164619 1513.686768
v -881.056274 9.896332 1513.686768
v -807.243713 162.416977 1510.756104
v -778.917480 38.064430 1513.677612
v -742.333740 136.594849 1510.578247
v -714.007446 12.242325 1513.499634
v -418.811005 124.439194 1510.150269
v -390.484741 0.086655 1513.071655
v -389.229858 144.098267 1510.192871
v -360.903564 19.745735 1513.114258
v -377.695587 156.448334 1510.227905
v -349.369324 32.095802 1513.149292
v -357.522034 142.617081 1510.149780
v -329.195740 18.264557 1513.071167
v -340.689575 140.927902 1510.123291
v -312.363281 16.575378 1513.044800
v -324.656250 156.548462 1510.166016
v -296.330017 32.195915 1513.087402
v -308.464905 154.208801 1510.137695
v -280.138611 29.856255 1513.059204
v -291.824402 174.328430 1510.197388
v -263.498169 49.975899 1513.118774
v -273.130737 181.646484 1510.204224
v -244.804443 57.293953 1513.125610
v -259.627991 190.816498 1510.224487
v -231.301697 66.463966 1513.145874
v -241.456848 184.013916 1510.176270
v -213.130554 59.661385 1513.097778
v -223.757324 157.317780 1510.050415
v -195.431091 32.965240 1512.971924
v -210.771484 151.725723 1510.013184
v -182.445190 27.373184 1512.934570
v -201.217041 168.538712 1510.068115
v -172.890808 44.186172 1512.989624
v -179.896851 171.402878 1510.054321
v -151.570557 47.050354 1512.975830
v -157.788757 158.240204 1509.976562
v -129.462463 33.887665 1512.897949
v -129.173523 140.677902 1509.873779
v -100.847290 16.325348 1512.795288
v -552.246094 6.164490 1513.285645
v -580.572388 92.239532 1510.364258
v -672.596069 8.880020 1513.392700
v -700.922363 133.232559 1510.471191
v -945.354004 149.337875 1509.232056
v -896.943298 142.831039 1510.011597
v -846.943298 88.970230 1512.262451
v -895.354004 95.477074 1511.482910
v -931.056274 33.030472 1513.686768
v -969.492065 106.774811 1511.464722
v -856.918213 21.732735 1513.704956
v -793.080566 100.240707 1512.216797
v -805.848816 35.816780 1513.700317
v -834.175049 153.394150 1510.778931
v -728.170532 74.418587 1512.038940
v -746.462463 25.153374 1513.588623
v -774.788696 149.505920 1510.667114
v -404.647888 62.262932 1511.610962
v -693.301758 10.561172 1513.446167
v -499.691681 108.339363 1510.257202
v -375.066742 81.921997 1511.653564
v -375.694153 9.916199 1513.093018
v -404.020447 134.268738 1510.171509
v -363.532410 94.272072 1511.688599
v -355.136475 25.920761 1513.131836
v -383.462708 150.273300 1510.210327
v -343.358887 80.440826 1511.610474
v -339.282532 25.180183 1513.110229
v -367.608826 149.532715 1510.188843
v -326.526428 78.751633 1511.583984
v -320.779480 17.419968 1513.057983
v -349.105835 141.772491 1510.136475
v -310.493164 94.372185 1511.626709
v -304.346619 24.385643 1513.066040
v -332.672913 148.738174 1510.144653
v -294.301758 92.032524 1511.598511
v -288.234314 31.026093 1513.073242
v -316.560608 155.378632 1510.151855
v -277.661316 112.152168 1511.658081
v -271.818359 39.916077 1513.088989
v -300.144653 164.268616 1510.167603
v -258.967590 119.470222 1511.664917
v -254.151306 53.634926 1513.122192
v -282.477539 177.987457 1510.200806
v -245.464905 128.640244 1511.685181
v -238.053101 61.878952 1513.135742
v -266.379333 186.231506 1510.214355
v -227.293640 121.837654 1511.637085
v -222.216125 63.062675 1513.121826
v -250.542419 187.415222 1510.200439
v -209.594238 95.141510 1511.511108
v -204.280823 46.313309 1513.034790
v -232.607056 170.665848 1510.113403
v -196.608337 89.549454 1511.473877
v -188.938110 30.169212 1512.953247
v -217.264465 154.521744 1510.031738
v -187.053955 106.362442 1511.528809
v -177.667969 35.779678 1512.962036
v -205.994324 160.132217 1510.040649
v -165.733704 109.226624 1511.515015
v -162.230652 45.618263 1512.982666
v -190.557007 169.970795 1510.061279
v -143.625610 96.063934 1511.437256
v -140.516541 40.469002 1512.936890
v -168.842773 164.821533 1510.015503
v -115.010437 78.501633 1511.334473
v -115.154846 25.106514 1512.846680
v -143.481140 149.459045 1509.925171
v -471.365417 3.125580 1513.178711
v -640.747314 112.736046 1510.417725
v -566.409241 49.202011 1511.824951
v -612.421082 7.522263 1513.339111
v -721.628052 134.913712 1510.524658
v -686.759216 71.056297 1511.931885
v -707.464905 72.737442 1511.985474
v -626.584229 60.129150 1511.878418
v -129.318054 87.282776 1511.385864
v -154.679688 102.645279 1511.476196
v -176.393799 107.794525 1511.521973
v -191.831116 97.955948 1511.501343
v -203.101257 92.345474 1511.492554
v -218.443970 108.489578 1511.574097
v -236.379272 125.238945 1511.661133
v -252.216248 124.055229 1511.675049
v -268.314453 115.811195 1511.661499
v -285.981567 102.092346 1511.628296
v -302.397461 93.202354 1511.612549
v -318.509827 86.561905 1511.605347
v -334.942627 79.596237 1511.597290
v -353.445679 87.356445 1511.649536
v -369.299561 88.097038 1511.671143
v -389.857330 72.092461 1511.632202
v -485.528564 55.732468 1511.717896
v -760.625610 87.329643 1512.127930
v -820.011963 94.605469 1512.239624
v -913.205139 64.253769 1512.584839
v -896.148682 119.154053 1510.747192
vn 0.1112 0.2503 0.9618
vn -0.0133 0.0242 0.9996
vn 0.0227 0.0707 0.9972
vn -0.0049 0.0230 0.9997
vn 0.0121 0.0349 0.9993
vn -0.0024 0.0188 0.9998
vn 0.0017 0.0239 0.9997
vn 0.0067 0.0250 0.9997
vn 0.0095 0.0257 0.9996
vn 0.0079 0.0253 0.9996
vn -0.0090 0.0223 0.9997
vn -0.0060 0.0221 0.9997
vn -0.0194 0.0191 0.9996
vn -0.0177 0.0194 0.9997
vn -0.0024 0.0229 0.9997
vn -0.0004 0.0234 0.9997
vn 0.0150 0.0269 0.9995
vn 0.0103 0.0258 0.9996
vn -0.0086 0.0215 0.9997
vn -0.0073 0.0218 0.9997
vn -0.0068 0.0219 0.9997
vn -0.0079 0.0217 0.9997
vn -0.0100 0.0212 0.9997
vn -0.0080 0.0217 0.9997
vn -0.0148 0.0201 0.9997
vn -0.0177 0.0195 0.9997
vn -0.0123 0.0207 0.9997
vn -0.0115 0.0209 0.9997
vn -0.0025 0.0229 0.9997
vn -0.0013 0.0232 0.9997
vn 0.0221 0.0285 0.9993
vn 0.0384 0.0322 0.9987
vn 0.0399 0.0326 0.9987
vn 0.0237 0.0289 0.9993
vn -0.0090 0.0214 0.9997
vn -0.0069 0.0219 0.9997
vn -0.0133 0.0205 0.9997
vn -0.0182 0.0193 0.9996
vn 0.0055 0.0247 0.9997
vn 0.0096 0.0257 0.9996
vn 0.0205 0.0281 0.9994
vn 0.0207 0.0282 0.9994
vn 0.0209 0.0282 0.9994
vn 0.0010 0.0325 0.9995
vn 0.0031 0.0328 0.9995
vn 0.0038 0.0257 0.9997
vn 0.0065 0.0250 0.9997
vn 0.4397 0.6878 -0.5775
vn -0.0233 0.0303 0.9993
vn -0.0090 0.0245 0.9997
vn -0.0040 0.0325 0.9995
vn 0.0129 0.0279 0.9995
vn 0.0073 0.0397 0.9992
vn -0.0083 0.0154 0.9998
vn 0.0042 0.0250 0.9997
vn -0.0015 0.0239 0.9997
vn -0.0065 0.0227 0.9997
vn 0.0088 0.0255 0.9996
vn 0.0133 0.0265 0.9996
vn -0.0073 0.0223 0.9997
vn 0.0046 0.0245 0.9997
vn -0.0033 0.0281 0.9996
vn -0.0186 0.0192 0.9996
vn -0.0011 0.0232 0.9997
vn -0.0227 0.0183 0.9996
vn 0.0128 0.0264 0.9996
vn -0.0081 0.0216 0.9997
vn 0.0040 0.0244 0.9997
vn -0.0075 0.0218 0.9997
vn -0.0209 0.0187 0.9996
vn -0.0092 0.0214 0.9997
vn 0.0053 0.0247 0.9997
vn -0.0164 0.0197 0.9997
vn -0.0251 0.0178 0.9995
vn -0.0119 0.0208 0.9997
vn -0.0088 0.0215 0.9997
vn -0.0018 0.0231 0.9997
vn -0.0151 0.0200 0.9997
vn 0.0302 0.0303 0.9991
vn 0.0125 0.0263 0.9996
vn 0.0317 0.0307 0.9990
vn 0.0646 0.0382 0.9972
vn 0.0646 0.0381 0.9972
vn -0.0082 0.0216 0.9997
vn 0.0144 0.0268 0.9995
vn -0.0162 0.0198 0.9997
vn -0.0336 0.0158 0.9993
vn 0.0078 0.0253 0.9997
vn 0.0206 0.0282 0.9994
vn 0.0202 0.0281 0.9994
vn 0.0014 0.0269 0.9996
vn 0.0094 0.0285 0.9996
vn 0.0015 0.0324 0.9995
vn 0.0028 0.0303 0.9995
vn 0.0056 0.0255 0.9997
vn 0.0063 0.0295 0.9995
vn -0.0008 0.0276 0.9996
vn -0.0043 0.0244 0.9997
vn 0.0050 0.0315 0.9995
vn -0.0126 0.0304 0.9995
vt 0.841131 0.115489
vt 0.890847 0.152227
vt 0.880764 0.188909
vt 0.923707 0.108049
vt 0.905809 0.033590
vt 0.956567 0.063871
vt 0.807700 0.196095
vt 0.782605 0.111055
vt 0.811868 0.113272
vt 0.747822 0.097927
vt 0.719614 0.168376
vt 0.713039 0.084799
vt 0.457188 0.078543
vt 0.389865 0.171501
vt 0.372579 0.088545
vt 0.373247 0.179807
vt 0.339263 0.105160
vt 0.355921 0.096852
vt 0.349399 0.193215
vt 0.324760 0.115351
vt 0.332011 0.110255
vt 0.312551 0.111234
vt 0.317817 0.190097
vt 0.300342 0.107118
vt 0.291468 0.107000
vt 0.300121 0.189863
vt 0.282594 0.106883
vt 0.290373 0.196312
vt 0.263012 0.119790
vt 0.272803 0.113337
vt 0.254432 0.119430
vt 0.263542 0.202016
vt 0.245851 0.119069
vt 0.252745 0.210324
vt 0.224091 0.135679
vt 0.234971 0.127374
vt 0.232044 0.221931
vt 0.204138 0.142289
vt 0.214115 0.138984
vt 0.214603 0.229149
vt 0.188938 0.150128
vt 0.196538 0.146208
vt 0.178892 0.148374
vt 0.187120 0.229498
vt 0.168845 0.146621
vt 0.153878 0.138731
vt 0.157421 0.213636
vt 0.138911 0.130841
vt 0.131625 0.129385
vt 0.142949 0.210697
vt 0.124339 0.127930
vt 0.135700 0.217784
vt 0.109694 0.142088
vt 0.117016 0.135009
vt 0.098595 0.144006
vt 0.106378 0.228643
vt 0.087496 0.145924
vt 0.074464 0.142368
vt 0.080429 0.221489
vt 0.061432 0.138812
vt 0.044468 0.134111
vt 0.046564 0.212051
vt 0.027505 0.129410
vt 0.605506 0.075488
vt 0.557463 0.136821
vt 0.541797 0.068541
vt 0.691126 0.083617
vt 0.679328 0.166274
vt 0.669214 0.082435
vt 0.682782 -0.000091
vt 0.659101 -0.001404
vt 0.706463 0.001222
vt 0.699471 0.167325
vt 0.592616 -0.000572
vt 0.526131 0.000260
vt 0.618396 0.151548
vt 0.025440 0.051452
vt 0.008446 0.046769
vt 0.042435 0.056135
vt 0.063496 0.216770
vt 0.055524 0.059670
vt 0.068614 0.063205
vt 0.093403 0.225066
vt 0.079776 0.061255
vt 0.090938 0.059305
vt 0.117414 0.226757
vt 0.098333 0.052233
vt 0.105728 0.045162
vt 0.113065 0.046604
vt 0.120402 0.048046
vt 0.150185 0.212167
vt 0.135486 0.055895
vt 0.150571 0.063743
vt 0.172270 0.221567
vt 0.160690 0.065465
vt 0.170808 0.067187
vt 0.197093 0.231283
vt 0.178473 0.063267
vt 0.186137 0.059347
vt 0.222139 0.225230
vt 0.196186 0.056037
vt 0.206234 0.052727
vt 0.241948 0.218631
vt 0.217197 0.044424
vt 0.228161 0.036121
vt 0.236780 0.036470
vt 0.245399 0.036819
vt 0.272084 0.202389
vt 0.255233 0.030361
vt 0.265068 0.023903
vt 0.273967 0.024021
vt 0.282867 0.024140
vt 0.308969 0.189980
vt 0.295109 0.028262
vt 0.307351 0.032385
vt 0.329993 0.194207
vt 0.314624 0.027295
vt 0.321897 0.022205
vt 0.356629 0.188114
vt 0.338595 0.013897
vt 0.355292 0.005589
vt 0.440712 0.002925
vt 0.473664 0.154161
vt 0.745555 0.013671
vt 0.784647 0.026121
vt 0.750088 0.182183
vt 0.816036 0.030449
vt 0.847424 0.034777
vt 0.834838 0.196201
vt 1.007325 0.094153
vt 0.970798 0.181915
vt 0.934271 0.269677
vt 0.920396 0.262328
vt 0.906522 0.254979
vt 0.870680 0.225590
vt 0.876616 0.034184
vt 0.780562 0.195989
vt 0.342168 0.198316
vt 0.280626 0.202762
vt 0.207067 0.233068
vt 0.128450 0.224871
s 1
usemtl Material.002
f 51/1/50 141/3/100 52/2/51
f 140/4/99 53/6/52 6/5/6
f 58/7/57 139/9/98 56/8/55
f 138/10/59 59/12/58 9/11/9
f 137/13/97 62/15/60 11/14/11
f 67/16/25 136/18/25 65/17/63
f 70/19/65 135/21/65 68/20/64
f 134/22/34 71/24/66 17/23/17
f 133/25/68 74/27/67 19/26/19
f 79/28/70 132/30/70 77/29/69
f 131/31/72 80/33/71 23/32/23
f 85/34/74 130/36/74 83/35/73
f 88/37/76 129/39/76 86/38/75
f 91/40/78 128/42/78 89/41/77
f 127/43/80 92/45/79 31/44/31
f 126/46/83 95/48/81 33/47/33
f 125/49/85 98/51/84 35/50/35
f 103/52/87 124/54/87 101/53/86
f 123/55/15 104/57/88 39/56/39
f 122/58/90 107/60/89 41/59/41
f 121/61/43 110/63/43 43/62/43
f 120/64/96 115/66/93 46/65/45
f 119/67/61 118/69/95 48/68/47
f 63/70/61 47/71/46 118/69/95
f 10/72/10 63/70/61 119/67/61
f 59/12/58 119/67/61 117/73/61
f 116/74/94 45/75/44 115/66/93
f 47/71/46 116/74/94 120/64/96
f 118/69/95 120/64/96 114/76/92
f 111/77/43 44/78/43 110/63/43
f 42/79/42 111/77/43 121/61/43
f 107/60/89 121/61/43 112/80/43
f 108/81/90 42/79/42 107/60/89
f 40/82/40 108/81/90 122/58/90
f 104/57/88 122/58/90 109/83/90
f 105/84/15 40/82/40 104/57/88
f 38/85/38 105/84/15 123/55/15
f 101/53/86 123/55/15 106/86/15
f 124/54/87 102/87/87 38/85/38
f 98/51/84 36/88/36 102/87/87
f 35/50/35 98/51/84 124/54/87
f 99/89/85 36/88/36 98/51/84
f 34/90/34 99/89/85 125/49/85
f 95/48/81 125/49/85 100/91/85
f 96/92/82 34/90/34 95/48/81
f 32/93/32 96/92/82 126/46/83
f 92/45/79 126/46/83 97/94/83
f 93/95/80 32/93/32 92/45/79
f 30/96/30 93/95/80 127/43/80
f 89/41/77 127/43/80 94/97/80
f 128/42/78 90/98/78 30/96/30
f 86/38/75 28/99/28 90/98/78
f 27/100/27 86/38/75 128/42/78
f 129/39/76 87/101/76 28/99/28
f 83/35/73 26/102/26 87/101/76
f 25/103/25 83/35/73 129/39/76
f 130/36/74 84/104/74 26/102/26
f 80/33/71 24/105/24 84/104/74
f 23/32/23 80/33/71 130/36/74
f 81/106/72 24/105/24 80/33/71
f 22/107/22 81/106/72 131/31/72
f 77/29/69 131/31/72 82/108/72
f 132/30/70 78/109/70 22/107/22
f 74/27/67 20/110/20 78/109/70
f 19/26/19 74/27/67 132/30/70
f 75/111/68 20/110/20 74/27/67
f 18/112/18 75/111/68 133/25/68
f 71/24/66 133/25/68 76/113/68
f 72/114/34 18/112/18 71/24/66
f 16/115/16 72/114/34 134/22/34
f 68/20/64 134/22/34 73/116/34
f 135/21/65 69/117/65 16/115/16
f 65/17/63 14/118/14 69/117/65
f 13/119/13 65/17/63 135/21/65
f 136/18/25 66/120/25 14/118/14
f 62/15/60 12/121/12 66/120/25
f 11/14/11 62/15/60 136/18/25
f 113/122/91 12/121/12 62/15/60
f 45/75/44 113/122/91 137/13/97
f 115/66/93 137/13/97 64/123/62
f 60/124/59 10/72/10 59/12/58
f 8/125/8 60/124/59 138/10/59
f 56/8/55 138/10/59 61/126/59
f 57/127/56 8/125/8 56/8/55
f 4/128/4 57/127/56 139/9/98
f 2/129/2 51/1/50 139/9/98
f 140/4/99 54/131/53 5/130/5
f 52/2/51 3/132/3 54/131/53
f 4/128/4 52/2/51 140/4/99
f 141/3/100 49/133/48 3/132/3
f 1/134/1 49/133/48 141/3/100
f 2/129/2 50/135/49 141/3/100
f 51/1/50 52/2/51 4/128/4
f 140/4/99 6/5/6 55/136/54
f 58/7/57 56/8/55 7/137/7
f 138/10/59 9/11/9 61/126/59
f 137/13/97 11/14/11 64/123/62
f 67/16/25 65/17/63 13/119/13
f 70/19/65 68/20/64 15/138/15
f 134/22/34 17/23/17 73/116/34
f 133/25/68 19/26/19 76/113/68
f 79/28/70 77/29/69 21/139/21
f 131/31/72 23/32/23 82/108/72
f 85/34/74 83/35/73 25/103/25
f 88/37/76 86/38/75 27/100/27
f 91/40/78 89/41/77 29/140/29
f 127/43/80 31/44/31 94/97/80
f 126/46/83 33/47/33 97/94/83
f 125/49/85 35/50/35 100/91/85
f 103/52/87 101/53/86 37/141/37
f 123/55/15 39/56/39 106/86/15
f 122/58/90 41/59/41 109/83/90
f 121/61/43 43/62/43 112/80/43
f 120/64/96 46/65/45 114/76/92
f 119/67/61 48/68/47 117/73/61
f 63/70/61 118/69/95 119/67/61
f 10/72/10 119/67/61 59/12/58
f 59/12/58 117/73/61 9/11/9
f 116/74/94 115/66/93 120/64/96
f 47/71/46 120/64/96 118/69/95
f 118/69/95 114/76/92 48/68/47
f 111/77/43 110/63/43 121/61/43
f 42/79/42 121/61/43 107/60/89
f 107/60/89 112/80/43 41/59/41
f 108/81/90 107/60/89 122/58/90
f 40/82/40 122/58/90 104/57/88
f 104/57/88 109/83/90 39/56/39
f 105/84/15 104/57/88 123/55/15
f 38/85/38 123/55/15 101/53/86
f 101/53/86 106/86/15 37/141/37
f 124/54/87 38/85/38 101/53/86
f 98/51/84 102/87/87 124/54/87
f 35/50/35 124/54/87 103/52/87
f 99/89/85 98/51/84 125/49/85
f 34/90/34 125/49/85 95/48/81
f 95/48/81 100/91/85 33/47/33
f 96/92/82 95/48/81 126/46/83
f 32/93/32 126/46/83 92/45/79
f 92/45/79 97/94/83 31/44/31
f 93/95/80 92/45/79 127/43/80
f 30/96/30 127/43/80 89/41/77
f 89/41/77 94/97/80 29/140/29
f 128/42/78 30/96/30 89/41/77
f 86/38/75 90/98/78 128/42/78
f 27/100/27 128/42/78 91/40/78
f 129/39/76 28/99/28 86/38/75
f 83/35/73 87/101/76 129/39/76
f 25/103/25 129/39/76 88/37/76
f 130/36/74 26/102/26 83/35/73
f 80/33/71 84/104/74 130/36/74
f 23/32/23 130/36/74 85/34/74
f 81/106/72 80/33/71 131/31/72
f 22/107/22 131/31/72 77/29/69
f 77/29/69 82/108/72 21/139/21
f 132/30/70 22/107/22 77/29/69
f 74/27/67 78/109/70 132/30/70
f 19/26/19 132/30/70 79/28/70
f 75/111/68 74/27/67 133/25/68
f 18/112/18 133/25/68 71/24/66
f 71/24/66 76/113/68 17/23/17
f 72/114/34 71/24/66 134/22/34
f 16/115/16 134/22/34 68/20/64
f 68/20/64 73/116/34 15/138/15
f 135/21/65 16/115/16 68/20/64
f 65/17/63 69/117/65 135/21/65
f 13/119/13 135/21/65 70/19/65
f 136/18/25 14/118/14 65/17/63
f 62/15/60 66/120/25 136/18/25
f 11/14/11 136/18/25 67/16/25
f 113/122/91 62/15/60 137/13/97
f 45/75/44 137/13/97 115/66/93
f 115/66/93 64/123/62 46/65/45
f 60/124/59 59/12/58 138/10/59
f 8/125/8 138/10/59 56/8/55
f 56/8/55 61/126/59 7/137/7
f 57/127/56 56/8/55 139/9/98
f 4/128/4 139/9/98 51/1/50
f 2/129/2 139/9/98 58/7/57
f 140/4/99 5/130/5 53/6/52
f 52/2/51 54/131/53 140/4/99
f 4/128/4 140/4/99 55/136/54
f 141/3/100 3/132/3 52/2/51
f 1/134/1 141/3/100 50/135/49
f 2/129/2 141/3/100 51/1/50
o Plane.002
v 136.376587 203.239456 1517.852661
v 208.050323 160.038361 1517.852661
v 136.376587 172.435150 1506.672241
v 236.376587 35.685837 1506.672241
v 88.100464 148.762360 1506.811768
v 188.100464 12.013031 1506.811768
v 261.913025 164.533676 1518.027222
v 290.239258 40.181129 1506.846680
v 326.823029 138.711548 1518.708130
v 355.149292 14.359024 1507.527588
v 650.345703 126.555893 1520.346069
v 678.671997 2.203354 1509.165527
v 679.926880 146.214966 1520.182983
v 708.253174 21.862434 1509.002441
v 691.461182 158.565033 1520.048706
v 719.787415 34.212502 1508.868286
v 711.634705 144.733780 1520.347778
v 739.960999 20.381256 1509.167358
v 728.467163 143.044601 1520.448975
v 756.793457 18.692078 1509.268555
v 744.500488 158.665161 1520.285767
v 772.826721 34.312614 1509.105225
v 760.691833 156.325500 1520.393799
v 789.018127 31.972954 1509.213379
v 777.332336 176.445129 1520.165527
v 805.658569 52.092598 1508.985107
v 796.026001 183.763184 1520.139404
v 824.352295 59.410652 1508.958862
v 809.528748 192.933197 1520.061890
v 837.855042 68.580666 1508.881470
v 827.699890 186.130615 1520.246094
v 856.026184 61.778084 1509.065674
v 845.399414 159.434479 1520.727905
v 873.725647 35.081940 1509.547485
v 858.385254 153.842422 1520.870483
v 886.711548 29.489883 1509.690063
v 867.939697 170.655411 1520.660278
v 896.265930 46.302872 1509.479736
v 889.259888 173.519577 1520.712891
v 917.586182 49.167053 1509.532471
v 911.367981 160.356903 1521.010620
v 939.694275 36.004364 1509.830200
v 939.983215 142.794601 1521.403931
v 968.309448 18.442047 1510.223389
vn 0.2014 0.3342 -0.9207
vn 0.0756 0.1343 -0.9881
vn 0.0524 0.0538 -0.9972
vn 0.0174 0.0521 -0.9985
vn -0.0021 -0.0016 -1.0000
vn 0.0170 0.0934 -0.9955
vn 0.0257 0.0953 -0.9951
vn 0.0322 0.0968 -0.9948
vn 0.0244 0.0950 -0.9952
vn -0.0245 0.0840 -0.9962
vn -0.0228 0.0844 -0.9962
vn -0.0738 0.0726 -0.9946
vn -0.0675 0.0741 -0.9950
vn -0.0091 0.0875 -0.9961
vn -0.0015 0.0892 -0.9960
vn 0.0569 0.1022 -0.9931
vn 0.0392 0.0983 -0.9944
vn -0.0329 0.0821 -0.9961
vn -0.0279 0.0832 -0.9961
vn -0.0260 0.0837 -0.9962
vn -0.0303 0.0827 -0.9961
vn -0.0379 0.0809 -0.9960
vn -0.0304 0.0826 -0.9961
vn -0.0565 0.0766 -0.9955
vn -0.0467 0.0789 -0.9958
vn -0.0438 0.0796 -0.9959
vn -0.0094 0.0874 -0.9961
vn -0.0050 0.0884 -0.9961
vn 0.0840 0.1082 -0.9906
vn 0.1445 0.1212 -0.9821
vn 0.1502 0.1224 -0.9811
vn 0.0900 0.1095 -0.9899
vn -0.0342 0.0818 -0.9961
vn -0.0261 0.0836 -0.9962
vn -0.0506 0.0780 -0.9957
vn -0.0693 0.0737 -0.9949
vn 0.0211 0.0943 -0.9953
vn 0.0364 0.0977 -0.9945
vn 0.0777 0.1068 -0.9912
vn 0.0785 0.1070 -0.9912
vn 0.0794 0.1072 -0.9911
vt 0.888766 0.171681
vt 0.995480 0.128975
vt 0.975370 0.182970
vt 0.880840 0.066139
vt 1.033778 0.106489
vt 0.843575 0.089396
vt 0.830733 0.178364
vt 0.788346 0.096396
vt 0.754781 0.175371
vt 0.717494 0.092751
vt 0.405296 0.190613
vt 0.378522 0.106021
vt 0.345122 0.114630
vt 0.369059 0.199096
vt 0.330233 0.119740
vt 0.328262 0.200031
vt 0.306884 0.115271
vt 0.309843 0.199795
vt 0.289418 0.114885
vt 0.268979 0.121142
vt 0.270600 0.205434
vt 0.252074 0.120409
vt 0.228814 0.128336
vt 0.246343 0.213391
vt 0.208227 0.131164
vt 0.225176 0.216252
vt 0.192161 0.134699
vt 0.188753 0.217514
vt 0.172534 0.132310
vt 0.160393 0.208637
vt 0.144641 0.123299
vt 0.146039 0.206635
vt 0.130433 0.121355
vt 0.113903 0.128054
vt 0.106434 0.214465
vt 0.091130 0.129209
vt 0.081150 0.209933
vt 0.065979 0.124588
vt 0.048328 0.203726
vt 0.033200 0.118492
vt 0.353072 0.204242
vt 0.288226 0.206055
vt 0.208742 0.219827
vt 0.129340 0.213302
s 1
usemtl Material.002
f 143/142/102 144/143/103 142/144/101
f 144/143/103 147/145/105 146/146/105
f 145/147/104 148/148/106 149/149/107
f 149/149/107 150/150/108 151/151/109
f 151/151/109 152/152/110 153/153/111
f 152/152/110 155/154/113 153/153/111
f 154/155/112 157/156/115 155/154/113
f 157/156/115 158/157/116 159/158/117
f 159/158/117 160/159/118 161/160/119
f 160/159/118 163/161/121 161/160/119
f 163/161/121 164/162/122 165/163/123
f 164/162/122 167/164/113 165/163/123
f 166/165/124 169/166/126 167/164/113
f 168/167/125 171/168/128 169/166/126
f 171/168/128 172/169/129 173/170/130
f 173/170/130 174/171/131 175/172/132
f 175/172/132 176/173/133 177/174/134
f 176/173/133 179/175/136 177/174/134
f 179/175/136 180/176/137 181/177/138
f 181/177/138 182/178/139 183/179/140
f 183/179/140 184/180/141 185/181/141
f 143/142/102 145/147/104 144/143/103
f 144/143/103 145/147/104 147/145/105
f 145/147/104 143/142/102 148/148/106
f 149/149/107 148/148/106 150/150/108
f 151/151/109 150/150/108 152/152/110
f 152/152/110 154/155/112 155/154/113
f 154/155/112 156/182/114 157/156/115
f 157/156/115 156/182/114 158/157/116
f 159/158/117 158/157/116 160/159/118
f 160/159/118 162/183/120 163/161/121
f 163/161/121 162/183/120 164/162/122
f 164/162/122 166/165/124 167/164/113
f 166/165/124 168/167/125 169/166/126
f 168/167/125 170/184/127 171/168/128
f 171/168/128 170/184/127 172/169/129
f 173/170/130 172/169/129 174/171/131
f 175/172/132 174/171/131 176/173/133
f 176/173/133 178/185/135 179/175/136
f 179/175/136 178/185/135 180/176/137
f 181/177/138 180/176/137 182/178/139
f 183/179/140 182/178/139 184/180/141
